<?xml version="1.0" standalone="no"?>
<!DOCTYPE svg PUBLIC "-//W3C//DTD SVG 20010904//EN"
 "http://www.w3.org/TR/2001/REC-SVG-20010904/DTD/svg10.dtd">
<svg version="1.0" xmlns="http://www.w3.org/2000/svg"
 width="258.000000pt" height="258.000000pt" viewBox="0 0 258.000000 258.000000"
 preserveAspectRatio="xMidYMid meet">
<metadata>
Created by potrace 1.11, written by Peter Selinger 2001-2013
</metadata>
<g transform="translate(0.000000,258.000000) scale(0.100000,-0.100000)"
fill="#000000" stroke="none">
<path d="M1002 2277 c-34 -36 -30 -89 10 -122 25 -21 38 -25 62 -21 70 14 98
85 55 140 -28 35 -95 37 -127 3z m98 -56 c0 -28 -28 -47 -48 -34 -24 15 -27
44 -7 59 22 17 55 1 55 -25z"/>
<path d="M804 2277 c-3 -8 -4 -45 -2 -83 3 -68 3 -69 32 -72 28 -4 29 -2 23
32 -7 44 5 46 33 6 16 -22 29 -30 52 -30 23 0 29 4 24 16 -3 9 -6 45 -6 80 l0
64 -29 0 c-29 0 -30 -2 -25 -37 l5 -38 -33 38 c-34 38 -65 48 -74 24z"/>
<path d="M600 2268 c-37 -20 -40 -70 -5 -86 14 -7 32 -12 40 -12 8 0 17 -5 21
-12 5 -8 -4 -9 -33 -5 -33 6 -42 4 -47 -10 -9 -22 11 -33 62 -33 29 0 48 6 62
20 36 36 20 64 -49 87 l-36 12 37 -2 c30 -2 39 1 44 16 3 10 4 21 1 23 -12 12
-75 13 -97 2z"/>
<path d="M724 2249 c3 -17 6 -53 6 -80 0 -47 1 -49 28 -49 l27 0 -3 80 -4 80
-30 0 c-29 0 -30 -2 -24 -31z"/>
<path d="M455 2260 c-15 -5 -28 -31 -45 -84 -13 -42 -21 -79 -17 -82 3 -3 20
1 38 10 36 18 79 21 79 6 0 -5 14 -10 30 -10 17 0 30 2 30 5 0 13 -81 165 -88
164 -4 0 -16 -4 -27 -9z m24 -99 c-15 -5 -22 6 -14 19 6 9 10 9 16 -1 5 -8 4
-15 -2 -18z"/>
<path d="M274 2250 c-30 -12 -54 -49 -54 -82 0 -39 38 -79 77 -80 32 -1 83 25
83 42 0 15 -38 22 -59 11 -15 -8 -23 -7 -35 5 -20 19 -20 25 -2 50 12 16 18
17 34 7 16 -9 24 -9 38 2 17 12 17 15 4 29 -20 20 -60 27 -86 16z"/>
<path d="M1660 2045 c-85 -7 -163 -14 -172 -14 -15 -1 -18 -10 -18 -50 0 -27
3 -62 6 -79 6 -28 8 -30 44 -25 l37 5 7 -73 c3 -41 9 -120 12 -176 l7 -103
-42 0 -42 0 7 -77 c4 -43 8 -79 9 -81 4 -4 375 24 378 29 1 2 1 37 -1 77 l-4
72 -43 0 c-33 0 -45 4 -49 18 -4 15 -20 292 -17 317 0 6 19 11 41 13 40 3 40
3 40 45 0 74 -11 117 -29 116 -9 -1 -86 -8 -171 -14z"/>
<path d="M907 2000 c-54 -4 -101 -10 -104 -13 -5 -5 19 -427 33 -588 l6 -67
62 4 c33 3 81 7 104 10 l44 6 -4 91 c-3 87 -2 92 18 95 17 2 36 -17 90 -89
l68 -92 65 7 c37 3 90 6 119 6 28 0 52 4 52 8 0 5 -34 52 -75 105 -41 54 -75
99 -75 101 0 2 20 23 44 47 101 101 80 275 -42 346 -44 26 -54 28 -177 30 -71
0 -174 -3 -228 -7z m271 -186 c15 -10 22 -25 22 -49 0 -44 -25 -61 -107 -69
l-61 -6 -4 65 c-3 62 -2 64 22 68 59 9 107 6 128 -9z"/>
<path d="M452 1970 c-134 -10 -246 -20 -249 -23 -2 -3 5 -149 16 -324 12 -175
21 -321 21 -324 0 -6 98 -2 169 7 l44 6 -6 103 c-5 92 -4 105 11 109 9 2 77 8
151 11 l134 7 -6 81 c-4 44 -9 82 -11 85 -3 2 -71 1 -151 -4 l-145 -9 0 41 0
42 88 6 c48 4 120 9 161 13 l73 6 -6 45 c-3 24 -6 67 -6 93 0 45 -2 49 -22 48
-13 -1 -132 -10 -266 -19z"/>
<path d="M2207 1353 c-53 -4 -57 -6 -52 -26 2 -12 11 -85 20 -162 8 -77 18
-155 21 -172 l5 -33 74 0 74 0 6 33 c3 17 19 107 34 200 l28 167 -76 -2 c-42
-1 -102 -3 -134 -5z"/>
<path d="M2005 1343 c-134 -6 -127 -1 -175 -111 -23 -53 -46 -101 -50 -106 -4
-4 -34 38 -67 94 l-58 101 -115 -7 c-63 -3 -117 -8 -119 -10 -2 -2 54 -92 125
-201 139 -215 142 -223 143 -384 l1 -56 103 5 c56 2 105 7 108 11 3 3 3 56 0
116 l-6 110 107 217 c60 120 108 220 108 223 0 3 -8 4 -17 3 -10 -1 -49 -3
-88 -5z"/>
<path d="M1185 1301 l-80 -6 -28 -80 c-16 -44 -69 -196 -117 -337 l-89 -258
38 0 c21 0 72 3 114 6 l76 7 14 41 c13 38 17 42 58 48 24 3 76 7 115 7 l72 1
16 -41 17 -42 112 7 c61 4 113 9 115 11 2 2 -65 148 -149 324 -144 303 -154
321 -178 319 -14 -1 -62 -4 -106 -7z m96 -388 c7 -19 5 -24 -15 -29 -12 -3
-38 -4 -57 -2 l-35 3 25 80 25 80 24 -55 c13 -30 28 -65 33 -77z"/>
<path d="M358 1240 c-59 -3 -109 -8 -112 -11 -5 -5 21 -544 30 -614 l4 -40
138 7 c165 9 229 21 302 58 68 35 112 80 142 145 33 72 33 208 0 280 -44 95
-123 153 -237 174 -62 12 -94 12 -267 1z m256 -208 c17 -10 37 -29 43 -43 16
-31 16 -107 0 -139 -16 -32 -91 -70 -138 -70 l-36 0 -6 83 c-10 127 -9 185 6
191 21 10 99 -3 131 -22z"/>
<path d="M2225 906 c-42 -18 -65 -57 -65 -108 0 -69 50 -118 119 -118 42 0 98
51 107 96 17 92 -77 169 -161 130z"/>
</g>
</svg>
